<?xml version="1.0" standalone="no"?>
<!DOCTYPE svg PUBLIC "-//W3C//DTD SVG 20010904//EN"
 "http://www.w3.org/TR/2001/REC-SVG-20010904/DTD/svg10.dtd">
<svg version="1.0" xmlns="http://www.w3.org/2000/svg"
 width="254.000000pt" height="83.000000pt" viewBox="0 0 254.000000 83.000000"
 preserveAspectRatio="xMidYMid meet">

<g transform="translate(0.000000,83.000000) scale(0.100000,-0.100000)"
fill="#000000" stroke="none">
<path d="M990 695 c-26 -32 13 -81 48 -59 34 22 22 74 -18 74 -10 0 -23 -7
-30 -15z"/>
<path d="M1432 698 c-6 -6 -12 -33 -12 -58 0 -42 -3 -47 -30 -57 -45 -17 -36
-73 12 -73 15 0 18 -13 20 -122 l3 -123 30 0 30 0 3 123 3 122 29 0 c20 0 33
7 41 22 10 18 8 24 -11 40 -12 10 -30 18 -41 18 -15 0 -18 9 -21 58 -3 48 -6
57 -23 60 -11 1 -26 -3 -33 -10z"/>
<path d="M200 619 c0 -63 1 -66 40 -104 22 -21 40 -34 40 -28 0 6 11 25 24 41
l25 29 -65 64 -64 63 0 -65z"/>
<path d="M503 588 l-43 -44 0 -126 c0 -133 8 -158 49 -158 37 0 42 21 39 199
l-3 172 -42 -43z"/>
<path d="M735 580 c-134 -30 -169 -212 -57 -295 40 -29 137 -32 180 -6 35 22
41 51 17 71 -13 11 -22 10 -51 -3 -50 -24 -81 -21 -112 11 l-27 27 117 3 c135
3 145 8 129 70 -25 90 -108 142 -196 122z m103 -97 l27 -28 -84 -3 c-46 -2
-86 0 -90 3 -3 4 7 18 22 31 39 34 90 32 125 -3z"/>
<path d="M1010 583 c-8 -3 -18 -11 -22 -17 -9 -13 -11 -268 -2 -290 7 -19 45
-21 62 -4 8 8 12 56 12 149 0 112 -3 141 -16 153 -8 9 -16 16 -17 15 -1 0 -9
-3 -17 -6z"/>
<path d="M1183 579 c-59 -17 -89 -81 -62 -131 6 -11 39 -33 74 -49 69 -31 85
-46 64 -60 -24 -15 -58 -10 -88 12 -59 43 -99 -11 -46 -61 20 -19 40 -25 90
-28 61 -4 66 -3 95 26 32 32 39 76 20 113 -11 20 -68 52 -112 63 -19 4 -28 13
-28 26 0 16 7 20 35 20 19 0 44 -6 55 -12 26 -17 55 10 45 41 -11 37 -83 57
-142 40z"/>
<path d="M1695 580 c-134 -30 -169 -212 -57 -295 40 -29 137 -32 180 -6 35 22
41 51 17 71 -13 11 -22 10 -51 -3 -50 -24 -81 -21 -112 11 l-27 27 117 3 c135
3 145 8 129 70 -25 90 -108 142 -196 122z m103 -97 l27 -28 -84 -3 c-46 -2
-86 0 -90 3 -3 4 7 18 22 31 39 34 90 32 125 -3z"/>
<path d="M2233 579 c-59 -17 -89 -81 -62 -131 6 -11 39 -33 74 -49 69 -31 85
-46 64 -60 -24 -15 -58 -10 -88 12 -59 43 -99 -11 -46 -61 20 -19 40 -25 90
-28 61 -4 66 -3 95 26 32 32 39 76 20 113 -11 20 -68 52 -112 63 -19 4 -28 13
-28 26 0 16 7 20 35 20 19 0 44 -6 55 -12 26 -17 55 10 45 41 -11 37 -83 57
-142 40z"/>
<path d="M1940 561 c-13 -26 -13 -256 0 -282 12 -21 40 -25 58 -7 7 7 12 42
12 85 0 98 16 129 75 144 29 7 47 18 51 31 13 43 -48 64 -94 32 -21 -15 -25
-15 -41 0 -24 22 -48 20 -61 -3z"/>
<path d="M305 431 c-92 -38 -71 -171 27 -171 99 0 124 128 33 166 -19 8 -36
14 -37 13 -2 0 -12 -4 -23 -8z"/>
<path d="M114 155 c-7 -17 3 -35 19 -34 9 0 9 2 0 6 -21 8 -15 31 10 36 l22 4
-23 2 c-12 0 -25 -6 -28 -14z"/>
<path d="M396 162 c-2 -4 8 -8 22 -7 22 0 28 -5 30 -29 2 -16 -2 -33 -10 -38
-10 -8 -10 -9 2 -5 19 5 25 54 9 73 -12 15 -45 19 -53 6z"/>
<path d="M951 133 c-1 -23 3 -44 7 -47 4 -2 6 12 4 32 -5 56 -10 62 -11 15z"/>
<path d="M1010 128 c-3 -26 -1 -43 3 -39 5 5 7 26 5 47 l-3 39 -5 -47z"/>
<path d="M1247 162 c6 -4 13 -25 16 -47 l4 -40 1 42 c2 30 7 43 20 46 9 3 1 5
-18 6 -19 0 -30 -3 -23 -7z"/>
<path d="M1778 163 c7 -3 16 -2 19 1 4 3 -2 6 -13 5 -11 0 -14 -3 -6 -6z"/>
<path d="M2050 163 c0 -6 8 -17 18 -24 16 -13 16 -13 2 6 -8 11 -16 22 -17 24
-2 2 -3 0 -3 -6z"/>
<path d="M2346 161 c-4 -5 3 -7 14 -4 23 6 26 13 6 13 -8 0 -17 -4 -20 -9z"/>
<path d="M1513 120 c0 -25 2 -35 4 -22 2 12 2 32 0 45 -2 12 -4 2 -4 -23z"/>
<path d="M381 124 c0 -12 7 -28 17 -35 15 -12 16 -12 6 1 -7 8 -14 24 -17 35
-4 19 -5 19 -6 -1z"/>
<path d="M2359 122 c15 -12 21 -24 16 -32 -5 -9 -4 -11 3 -6 20 12 13 32 -15
45 l-28 12 24 -19z"/>
<path d="M2091 103 c7 -12 15 -20 18 -17 3 2 -3 12 -13 22 -17 16 -18 16 -5
-5z"/>
</g>
</svg>
